<svg xmlns="http://www.w3.org/2000/svg" viewBox="0 0 64 64">
  <circle cx="32" cy="34" r="23" fill="#8ecae6" stroke="#0b2d4d" stroke-width="3"/>
  <path d="M14 27c4-4 8-2 10 2 2 3 6 1 7 5 1 4-4 6-7 5-5-1-8 4-12 1" fill="#9ccfb0"/>
  <path d="M41 22c4-4 10-3 12 1-3 1-2 4-5 5-4 1-7 0-9 4-2 4-6 2-7-1" fill="#f7f2df"/>
  <path d="M18 32c8 3 9 13 24 12" fill="none" stroke="#0b2d4d" stroke-width="3" stroke-linecap="round" stroke-dasharray="3 5"/>
  <path d="M32 5c-7 0-12 5-12 12 0 9 12 24 12 24s12-15 12-24c0-7-5-12-12-12z" fill="#ff6b57" stroke="#0b2d4d" stroke-width="3"/>
  <circle cx="32" cy="17" r="5" fill="#fff7e8" stroke="#0b2d4d" stroke-width="3"/>
</svg>
